# xmcd CD database file
#
# Track frame offsets:
#	150
#	22008
#	40004
#	83727
#	109698
#	133558
#	155438
#
# Disc length: 2313 seconds
#
# Revision: 3
# Processed by: cddbd v1.5.2PL0 Copyright (c) Steve Scherf et al.
# Submitted via: CDex 1.70beta3
#
DISCID=4c090707
DTITLE=竜宮小町 (水瀬伊織(CV:釘宮理恵) 三浦あずさ(CV:たかはし智秋) 双海亜美(CV:下田麻美)) - SMOKY THRILL
DYEAR=2011
DGENRE=アニメ
TTITLE0=竜宮小町 (水瀬伊織(CV:釘宮理恵) 三浦あずさ(CV:たかはし智秋) 双海亜美(CV:下田麻美))/SMOKY THRILL (M@STER VERSION)
TTITLE1=秋月律子 (CV:若林直美)/恋するミカタ
TTITLE2=水瀬伊織(CV:釘宮理恵) 三浦あずさ(CV:たかはし智秋) 双海亜美(CV:下田麻美) 秋月律子 (CV:若林直美)/トーク 01
TTITLE3=星井美希 (CV:長谷川明子) 萩原雪歩 (CV:浅倉杏美) 高槻やよい (CV:仁後真耶子)/友情出演「チクタク」
TTITLE4=水瀬伊織(CV:釘宮理恵) 三浦あずさ(CV:たかはし智秋) 双海亜美(CV:下田麻美) 秋月律子 (CV:若林直美)/トーク 02
TTITLE5=竜宮小町 水瀬伊織(CV:釘宮理恵) 三浦あずさ(CV:たかはし智秋) 双海亜美(CV:下田麻美)/SMOKY THRILL (M@STER VESRION) (オリジナル・カラオケ)
TTITLE6=秋月律子 (CV若林直美)/恋するミカタ (オリジナル・カラオケ)
EXTD=YEAR: 2011
EXTT0=
EXTT1=
EXTT2=
EXTT3=
EXTT4=
EXTT5=
EXTT6=
PLAYORDER=
